# xmcd CD database file
#
# Track frame offsets:
#	150
#	13561
#	20640
#	38749
#	59971
#	91083
#	93444
#	109255
#	132153
#	159615
#	182562
#	204811
#	208763
#	222537
#	225404
#
# Disc length: 3312 seconds
#
# Revision: 0
# Processed by: cddbd v1.5.1PL0 Copyright (c) Steve Scherf et al.
# Submitted via: CDex 1.50
#
DISCID=cc0cee0f
DTITLE=Till Brönner - Blue Eyed Soul
DYEAR=1900
DGENRE=Jazz
TTITLE0=42nd and 6th
TTITLE1=Banizm
TTITLE2=Blue Eyed Soul
TTITLE3=Diavolo
TTITLE4=Dim the lights
TTITLE5=Intro
TTITLE6=Jazz musician
TTITLE7=Just the way you are
TTITLE8=Love somebody
TTITLE9=No Fusion Generation
TTITLE10=Oscar said
TTITLE11=Reverand Henry
TTITLE12=Track One
TTITLE13=Trash (interlude)
TTITLE14=Tub of love
EXTD=
EXTT0=
EXTT1=
EXTT2=
EXTT3=
EXTT4=
EXTT5=
EXTT6=
EXTT7=
EXTT8=
EXTT9=
EXTT10=
EXTT11=
EXTT12=
EXTT13=
EXTT14=
PLAYORDER=
